<svg width="95" height="55" viewBox="0 0 95 55" fill="none" xmlns="http://www.w3.org/2000/svg">
<path d="M40.0944 18.4594L39.4778 17.092L40.0944 18.4594ZM93.8972 14.2294C94.5986 13.7886 94.8099 12.8627 94.3691 12.1612L87.186 0.730882C86.7452 0.0294569 85.8193 -0.181829 85.1178 0.25896C84.4164 0.699753 84.2051 1.6257 84.6459 2.32712L91.0309 12.4874L80.8706 18.8724C80.1691 19.3132 79.9579 20.2392 80.3986 20.9406C80.8394 21.642 81.7654 21.8533 82.4668 21.4125L93.8972 14.2294ZM1.59441 53.2942C2.91206 54.011 2.91188 54.0113 2.91175 54.0116C2.91177 54.0115 2.91168 54.0117 2.91172 54.0116C2.9118 54.0115 2.91207 54.011 2.91253 54.0101C2.91345 54.0085 2.91514 54.0054 2.91759 54.0009C2.92249 53.992 2.93045 53.9776 2.94148 53.9579C2.96353 53.9183 2.99783 53.8573 3.0444 53.7758C3.13754 53.6129 3.27973 53.3683 3.47114 53.0504C3.854 52.4147 4.43351 51.4863 5.21096 50.3325C6.76634 48.0241 9.11112 44.8179 12.2551 41.2498C18.5487 34.1072 28.0091 25.5553 40.7111 19.8268L39.4778 17.092C26.2738 23.047 16.4841 31.9125 10.0042 39.2665C6.76146 42.9466 4.33861 46.2584 2.72304 48.6561C1.91502 49.8553 1.30824 50.8268 0.901166 51.5028C0.69761 51.8408 0.54393 52.105 0.439937 52.2869C0.387939 52.3779 0.348358 52.4483 0.321169 52.497C0.307575 52.5214 0.297078 52.5404 0.289676 52.5538C0.285975 52.5606 0.283047 52.5659 0.280893 52.5698C0.279816 52.5718 0.278932 52.5734 0.278242 52.5747C0.277897 52.5753 0.277523 52.576 0.277351 52.5763C0.277026 52.5769 0.27675 52.5774 1.59441 53.2942ZM40.7111 19.8268C53.4027 14.1029 66.4199 12.7437 76.2987 12.828C81.2321 12.8701 85.3655 13.272 88.2597 13.6623C89.7063 13.8574 90.8419 14.0493 91.6115 14.1915C91.9963 14.2626 92.2894 14.3212 92.484 14.3616C92.5814 14.3817 92.654 14.3973 92.7012 14.4076C92.7248 14.4127 92.742 14.4166 92.7527 14.4189C92.7581 14.4201 92.7618 14.421 92.7639 14.4215C92.765 14.4217 92.7656 14.4218 92.7659 14.4219C92.766 14.4219 92.7659 14.4219 92.7659 14.4219C92.7657 14.4219 92.7654 14.4218 93.0991 12.9594C93.4327 11.497 93.4322 11.4968 93.4316 11.4967C93.4312 11.4966 93.4304 11.4964 93.4297 11.4963C93.4283 11.4959 93.4265 11.4955 93.4243 11.495C93.4198 11.494 93.4136 11.4926 93.4059 11.4909C93.3904 11.4874 93.3683 11.4826 93.3398 11.4764C93.2829 11.464 93.2002 11.4462 93.0927 11.424C92.8778 11.3794 92.5634 11.3166 92.1566 11.2415C91.343 11.0911 90.1592 10.8913 88.6606 10.6892C85.6642 10.2852 81.4038 9.87147 76.3243 9.82813C66.1773 9.74157 52.6922 11.1324 39.4778 17.092L40.7111 19.8268Z" fill="white"/>
</svg>
