<svg width="1385" height="544" viewBox="0 0 1385 544" fill="none" xmlns="http://www.w3.org/2000/svg">
<line x1="289.5" y1="5" x2="289.5" y2="523" stroke="#B7B7B7" stroke-dasharray="10 10"/>
<line x1="563.5" y1="5" x2="563.5" y2="523" stroke="#B7B7B7" stroke-dasharray="10 10"/>
<line x1="837.5" y1="5" x2="837.5" y2="523" stroke="#B7B7B7" stroke-dasharray="10 10"/>
<line x1="1111.5" y1="5" x2="1111.5" y2="523" stroke="#B7B7B7" stroke-dasharray="10 10"/>
<path d="M1385 527L1360 512.566L1360 541.434L1385 527ZM15 529.5L1362.5 529.5L1362.5 524.5L15 524.5L15 529.5Z" fill="#8D8D8E"/>
<path d="M15 0.5L0.566243 25.5L29.4338 25.5L15 0.5ZM17.5 544L17.5 23L12.5 23L12.5 544L17.5 544Z" fill="#8D8D8E"/>
<path d="M15.5 528L290 258.5L563.5 152.5L837.5 111L1111.5 51H1383" stroke="#8D8D8E" stroke-width="2"/>
<circle cx="288.5" cy="258.5" r="14.5" fill="#009FE3"/>
<circle cx="562.5" cy="152.5" r="14.5" fill="#009FE3"/>
<circle cx="837.5" cy="109.5" r="14.5" fill="#009FE3"/>
<circle cx="1111.5" cy="48.5" r="14.5" fill="#009FE3"/>
</svg>
