<svg width="1385" height="540" viewBox="0 0 1385 540" fill="none" xmlns="http://www.w3.org/2000/svg">
<line x1="301.5" y1="-2.28173e-08" x2="301.5" y2="518" stroke="#B7B7B7" stroke-dasharray="10 10"/>
<line x1="598.5" y1="-2.28173e-08" x2="598.5" y2="518" stroke="#B7B7B7" stroke-dasharray="10 10"/>
<line x1="899.5" y1="-2.28173e-08" x2="899.5" y2="518" stroke="#B7B7B7" stroke-dasharray="10 10"/>
<line x1="1202.5" y1="-2.28173e-08" x2="1202.5" y2="518" stroke="#B7B7B7" stroke-dasharray="10 10"/>
<path d="M1385 522L1360 507.566L1360 536.434L1385 522ZM15 524.5L1362.5 524.5L1362.5 519.5L15 519.5L15 524.5Z" fill="#8D8D8E"/>
<path d="M14.9994 44L0.565613 69L29.4331 69L14.9994 44ZM17.499 539.5L17.4994 66.5L12.4994 66.5L12.499 539.5L17.499 539.5Z" fill="#8D8D8E"/>
<path d="M15.5 523L300 253.5L603 146.5L898 106L1199.5 46H1383" stroke="#8D8D8E" stroke-width="2"/>
<circle cx="300.5" cy="253.5" r="14.5" fill="#009FE3"/>
<circle cx="597.5" cy="148.5" r="14.5" fill="#009FE3"/>
<circle cx="899.5" cy="104.5" r="14.5" fill="#009FE3"/>
<circle cx="1201.5" cy="43.5" r="14.5" fill="#009FE3"/>
</svg>
