<svg width="65" height="63" viewBox="0 0 65 63" fill="none" xmlns="http://www.w3.org/2000/svg">
<path d="M56.9088 18.0409C57.7147 18.0409 58.4591 17.611 58.8618 16.9133C59.2645 16.2156 59.2645 15.3558 58.8618 14.6582C58.4591 13.9605 57.7147 13.5306 56.9088 13.5306H51.271C50.8673 13.5316 50.4943 13.3162 50.2924 12.9668L46.1069 5.6377H44.8731L46.7165 12.094H46.717C46.8137 12.4343 46.7457 12.7998 46.5328 13.0822C46.3199 13.3646 45.9866 13.5302 45.6333 13.5307H44.0547C44.6638 14.9724 44.6638 16.5992 44.0547 18.0409L56.9088 18.0409Z" fill="#009FE3"/>
<path d="M62.2075 34.457C61.4846 33.8293 60.8901 33.0677 60.4562 32.2145C60.0837 31.2838 59.8295 30.3103 59.6996 29.3166C59.6367 28.9512 59.5758 28.5918 59.5013 28.2475C59.4796 28.1473 59.454 28.0582 59.4313 27.96C54.7313 31.6623 48.4214 32.5971 42.8491 30.4175C37.2773 28.2379 33.2775 23.2695 32.3366 17.361C31.8056 17.1536 31.2856 16.9291 30.7852 16.7V16.7005C29.6144 16.0426 28.3091 15.6601 26.9687 15.582C25.6322 15.732 24.3853 16.328 23.4289 17.2734C23.0116 17.6262 22.6134 18.0007 22.2148 18.3738C21.4456 19.1328 20.6161 19.8275 19.7341 20.4517C18.0951 21.54 16.1859 22.1496 14.2202 22.213C13.8029 22.2286 13.4153 22.2286 13.0418 22.2241C12.0889 22.145 11.1299 22.2835 10.2374 22.6278C7.68025 23.8943 5.62796 25.9904 4.41586 28.5737C3.96383 29.6761 3.6608 30.8338 3.51381 32.0163C3.35374 33.158 3.08242 34.2815 2.70337 35.3708C2.39783 36.0866 2.01979 36.7692 1.57581 37.408C0.942564 38.1832 0.575611 39.1416 0.529297 40.1413C0.580138 46.3302 5.82883 52.0472 12.2313 52.8827C13.7535 53.0539 15.2612 53.3378 16.7416 53.7319L22.1831 55.2743C22.7036 55.3805 23.0796 55.8356 23.0851 56.3671C23.0776 58.3565 23.9671 60.2436 25.5058 61.504C27.0451 62.765 29.0707 63.2648 31.0198 62.8651L49.0144 60.099C50.5502 59.865 52.1192 59.9737 53.6081 60.4182C55.8018 61.072 58.1738 60.694 60.0553 59.3898C62.0411 58.0447 63.3091 55.8717 63.5035 53.4811C63.5201 52.5121 63.3716 51.5466 63.0635 50.6274C62.7162 49.5542 62.541 48.4327 62.545 47.3046C62.6608 45.7522 62.9251 44.2149 63.3343 42.7128C63.5135 41.9663 63.6927 41.2188 63.8337 40.4577C64.261 38.8016 64.035 37.0444 63.2035 35.5498C62.904 35.1567 62.5707 34.7912 62.2068 34.457L62.2075 34.457ZM11.0162 45.8997L10.4932 45.3752C9.25894 44.143 8.62069 42.436 8.74247 40.6963C8.86428 38.9566 9.73512 37.3554 11.129 36.3073L12.4821 38.1114C11.6098 38.7658 11.0641 39.7666 10.987 40.8543C10.9095 41.9421 11.3082 43.0098 12.0793 43.7809L12.6039 44.3054L11.0162 45.8997ZM47.0079 34.5623V34.5618C48.6882 33.7227 50.6357 33.5968 52.4102 34.213C54.1841 34.8291 55.6347 36.1353 56.4332 37.8352C57.232 39.535 57.3106 41.4851 56.6521 43.244L54.5908 48.7419L52.4777 47.9526L54.5401 42.4547C54.9866 41.2652 54.9337 39.9459 54.3936 38.7956C53.8535 37.6454 52.8723 36.7615 51.6719 36.3451C50.4713 35.9283 49.1535 36.0139 48.0174 36.5827L45.0183 38.0823L44.0101 36.0653L47.0079 34.5623ZM29.8458 26.4977C29.8478 24.9276 30.2017 23.3788 30.8823 21.9638L32.9119 22.9438C32.3788 24.0528 32.1015 25.2674 32.101 26.4977C32.103 28.5585 31.4924 30.574 30.3478 32.2875L28.4716 31.0361H28.4711C29.3691 29.6931 29.8479 28.1135 29.8458 26.4977L29.8458 26.4977ZM17.3154 31.5416L16.1259 33.3256L14.2497 32.0742L15.4392 30.2902V30.2897C16.3126 28.9754 17.787 28.1866 19.3651 28.1891C19.882 28.1891 20.3859 28.0265 20.8052 27.724C21.2251 27.4219 21.5382 26.9951 21.7013 26.5043L23.1378 22.195L25.2802 22.9077L23.8436 27.2186V27.2181C23.531 28.1584 22.93 28.9765 22.1261 29.5553C21.3222 30.1347 20.3563 30.4458 19.3651 30.4443C18.5411 30.4423 17.7709 30.8545 17.3154 31.5416L17.3154 31.5416ZM18.5929 45.3275L18.5703 45.2147C18.2038 43.3507 18.3689 41.4212 19.047 39.6469C19.7245 37.8724 20.8878 36.3241 22.404 35.1794L23.7571 36.9835C22.5802 37.8715 21.6771 39.0731 21.1511 40.4502C20.6245 41.8275 20.4967 43.325 20.7816 44.7717L18.5929 45.3275ZM23.0578 54.3479L20.848 53.8969C21.3001 51.6418 23.2914 47.3571 27.5907 47.3571C30.5364 47.3027 33.4686 46.9363 36.3374 46.2632L36.8855 48.451H36.885C33.8381 49.1718 30.7217 49.5614 27.5907 49.6122C24.0454 49.6122 23.0679 54.2962 23.0578 54.348V54.3479ZM34.2206 58.3664L30.1987 59.706L29.4859 57.5636L33.5068 56.2216V56.2221C34.8423 55.7777 36.223 55.4827 37.6239 55.3427L37.8494 57.5868V57.5863C36.6157 57.7101 35.4 57.9703 34.2241 58.362L34.2206 58.3664ZM38.8774 37.2327C38.3312 37.5051 37.916 37.9838 37.7242 38.5631L37.6376 38.8249H37.6371C37.255 39.9706 36.433 40.9179 35.3527 41.4576C34.272 41.9977 33.0211 42.0858 31.8755 41.7037C31.2674 41.5019 30.6024 41.5623 30.0407 41.8709C29.4794 42.1794 29.0717 42.708 28.9156 43.3296L28.6901 44.2472L26.5024 43.7016L26.7279 42.7824C27.036 41.5507 27.8434 40.5031 28.9564 39.892C30.0698 39.2814 31.3871 39.1626 32.5912 39.5643C33.1706 39.7581 33.8028 39.7138 34.3485 39.441C34.8947 39.1681 35.31 38.6894 35.5028 38.1101L35.5894 37.8483H35.5899C35.9719 36.7036 36.7929 35.7572 37.8727 35.2177C38.9519 34.6781 40.2018 34.5885 41.347 34.9695L41.4743 35.0113L40.7661 37.1537L40.6362 37.1109H40.6367C40.0573 36.9151 39.4241 36.9589 38.8775 37.2327L38.8774 37.2327ZM40.2194 47.3345L39.7684 45.1248L41.419 44.7945V44.794C43.6807 44.3476 45.67 43.0151 46.944 41.0937L48.8202 42.3451H48.8207C47.2164 44.7653 44.7111 46.4436 41.8625 47.0053L40.2194 47.3345ZM59.1392 52.1357C58.7436 53.3177 57.8546 54.2696 56.7029 54.7452C55.5512 55.2214 54.2495 55.1741 53.1349 54.6164C52.626 54.3637 52.035 54.3325 51.502 54.5308L46.8024 56.2942C45.7584 56.6843 44.6822 56.9823 43.5869 57.1862L43.1766 54.9683H43.1761C44.1421 54.7881 45.0909 54.5238 46.0111 54.179L50.7062 52.4248C51.8262 52.008 53.0685 52.0734 54.1387 52.605C54.6693 52.8702 55.2889 52.8924 55.8371 52.6659C56.3853 52.4389 56.8082 51.9848 56.9959 51.422L58.0933 48.1284L60.2356 48.8412L59.1392 52.1357Z" fill="#8D8D8E"/>
<path d="M49.0157 29.3166C52.9033 29.3166 56.6318 27.7723 59.3808 25.0233C62.1297 22.2744 63.674 18.5459 63.674 14.6583C63.674 10.7707 62.1297 7.04216 59.3808 4.29323C56.6318 1.54431 52.9033 0 49.0157 0C45.1281 0 41.3996 1.54431 38.6507 4.29323C35.9017 7.04216 34.3574 10.7707 34.3574 14.6583C34.362 18.5443 35.9078 22.2703 38.6557 25.0183C41.4036 27.7663 45.1296 29.3121 49.0157 29.3166ZM41.1228 11.2756H44.1379L42.294 4.81926C42.1974 4.47898 42.2653 4.11352 42.4783 3.83113C42.6912 3.54873 43.0244 3.38312 43.3778 3.38262H46.7605C47.1642 3.38161 47.5372 3.59706 47.739 3.9464L51.9245 11.2755H56.9085C58.5198 11.2755 60.0088 12.1353 60.8146 13.5307C61.62 14.926 61.62 16.6456 60.8146 18.0409C60.0087 19.4362 58.5197 20.296 56.9085 20.296H41.1227C39.2259 20.296 37.74 18.3147 37.74 15.7858C37.74 13.2568 39.2259 11.2755 41.1227 11.2755L41.1228 11.2756Z" fill="#009FE3"/>
<path d="M42.2512 15.7859C42.2512 17.0312 41.7463 18.041 41.1237 18.041C40.501 18.041 39.9961 17.0312 39.9961 15.7859C39.9961 14.5405 40.501 13.5308 41.1237 13.5308C41.7463 13.5308 42.2512 14.5405 42.2512 15.7859Z" fill="#009FE3"/>
</svg>
