<svg width="45" height="45" viewBox="0 0 45 45" fill="none" xmlns="http://www.w3.org/2000/svg">
<path d="M22.0763 0.847411C16.2212 0.847411 10.6061 3.17325 6.46611 7.31352C2.32575 11.4536 0 17.0686 0 22.9237C0 28.7788 2.32583 34.3939 6.46611 38.5339C10.6061 42.6742 16.2211 45 22.0763 45C27.9314 45 33.5465 42.6741 37.6865 38.5339C41.8268 34.3938 44.1526 28.7788 44.1526 22.9237C44.1491 17.0699 41.8224 11.4567 37.683 7.31677C33.5436 3.17738 27.9304 0.850655 22.076 0.847168L22.0763 0.847411ZM21.1427 7.60912C21.1427 7.09339 21.5609 6.67554 22.0763 6.67554C22.5917 6.67554 23.0099 7.09337 23.0099 7.60912V9.41285C23.0099 9.92858 22.5917 10.3464 22.0763 10.3464C21.5609 10.3464 21.1427 9.9286 21.1427 9.41285V7.60912ZM8.52822 23.8575H6.76219C6.24647 23.8575 5.82861 23.4394 5.82861 22.9239C5.82861 22.4085 6.24644 21.9904 6.76219 21.9904H8.56593C9.08165 21.9904 9.49951 22.4085 9.49951 22.9239C9.49951 23.4394 9.08168 23.8575 8.56593 23.8575H8.52822ZM22.9722 38.2383C22.9722 38.754 22.5544 39.1719 22.039 39.1719C21.5233 39.1719 21.1054 38.754 21.1054 38.2383V36.4345C21.1054 35.9188 21.5232 35.501 22.039 35.501C22.5544 35.501 22.9722 35.9188 22.9722 36.4345V38.2383ZM30.6548 30.2151L33.5309 33.1038L33.5312 33.1042C33.8644 33.4586 33.8644 34.0111 33.5312 34.3656C33.3541 34.5421 33.1124 34.638 32.8624 34.6304C32.6207 34.6339 32.3882 34.5382 32.2191 34.3656L29.3303 31.4769V31.4766C27.2963 33.2103 24.7113 34.1625 22.039 34.1625C19.3663 34.1625 16.7814 33.2103 14.7473 31.4766L11.8963 34.416C11.7272 34.5886 11.4946 34.6843 11.2532 34.6808C11.0033 34.6884 10.7613 34.5924 10.5845 34.416C10.2513 34.0615 10.2513 33.509 10.5845 33.1545L13.4606 30.2658C11.7484 28.2219 10.8097 25.6405 10.8097 22.9741C10.8097 20.3078 11.7483 17.7267 13.4606 15.6828L10.5845 12.7434C10.2513 12.3889 10.2513 11.8364 10.5845 11.4819C10.9438 11.1607 11.4867 11.1607 11.846 11.4819L14.7347 14.358V14.3583C16.7719 12.6319 19.3559 11.684 22.0264 11.684C24.6969 11.684 27.2805 12.6319 29.3177 14.3583L32.2064 11.4823V11.4819C32.5657 11.1607 33.1089 11.1607 33.4679 11.4819C33.8011 11.8364 33.8011 12.3889 33.4679 12.7434L30.5918 15.6321V15.6324C32.3183 17.6643 33.2746 20.2391 33.2933 22.9054C33.3116 25.5718 32.3911 28.1596 30.6928 30.2152L30.6548 30.2151ZM37.3535 23.9077H35.5874C35.0717 23.9077 34.6539 23.4899 34.6539 22.9741C34.6539 22.4587 35.0717 22.0406 35.5874 22.0406H37.3915H37.3912C37.9069 22.0406 38.3248 22.4587 38.3248 22.9741C38.3248 23.4899 37.9069 23.9077 37.3912 23.9077H37.3535Z" fill="#8D8D8E"/>
<path d="M22.0766 13.4873C19.1431 13.4879 16.3767 14.853 14.5913 17.1807C12.8059 19.5084 12.205 22.534 12.9646 25.3673C13.7246 28.2009 15.7589 30.5197 18.4693 31.6418C21.1797 32.7638 24.2579 32.5614 26.7979 31.0944C29.3381 29.627 31.0513 27.0617 31.434 24.1534C31.8163 21.245 30.8242 18.324 28.7495 16.25C26.9825 14.4757 24.5801 13.4813 22.0762 13.4874L22.0766 13.4873ZM27.274 21.5358L20.2474 29.2307C20.0732 29.4233 19.8258 29.5332 19.566 29.5336C19.4156 29.5345 19.2676 29.4952 19.1371 29.4198C18.7608 29.2314 18.5666 28.8062 18.6705 28.3982L19.7301 23.8442H17.5605C17.2513 23.8394 16.964 23.6839 16.7907 23.4279C16.612 23.1729 16.5787 22.8431 16.7026 22.5574L19.049 16.8681C19.1887 16.5171 19.529 16.2871 19.9069 16.288H24.5993C24.9155 16.2912 25.2088 16.4521 25.3815 16.7166C25.5456 16.9834 25.569 17.3128 25.4448 17.5999L24.3725 19.9839H26.6055H26.6052C26.9729 19.9801 27.309 20.1924 27.463 20.5266C27.622 20.8687 27.546 21.2742 27.2739 21.5358L27.274 21.5358Z" fill="#009FE3"/>
<path d="M22.1397 21.4099C21.9652 21.148 21.9367 20.815 22.064 20.5271L23.149 18.168H20.5252L18.9482 21.9526H20.9161C21.1955 21.9614 21.4575 22.09 21.6352 22.3058C21.811 22.5304 21.876 22.8224 21.812 23.1006L21.2947 25.3083L24.4989 21.8012H22.9093C22.6011 21.8186 22.3074 21.6694 22.1398 21.41L22.1397 21.4099Z" fill="#009FE3"/>
</svg>
