<svg width="52" height="54" viewBox="0 0 52 54" fill="none" xmlns="http://www.w3.org/2000/svg">
<path d="M45.579 5.4546H41.795V3.46582C41.795 1.53415 40.247 0 38.2978 0C36.3486 0 34.8005 1.53415 34.8005 3.46582V5.4546H17.1423V3.46582C17.1423 1.53415 15.5943 0 13.6451 0C11.6959 0 10.1478 1.53415 10.1478 3.46582V5.4546H6.36384C2.86659 5.4546 0 8.29543 0 11.7612V15H52V11.7612C51.9424 8.23831 49.1335 5.4546 45.579 5.4546Z" fill="#009FE3"/>
<path d="M0.000399912 47.6932C0.000399912 51.1591 2.86697 54 6.36419 54H45.6362C49.1334 54 52 51.1591 52 47.6932L51.9996 19H0L0.000399912 47.6932ZM34.1126 29.7386C34.1126 29.1136 34.6285 28.659 35.202 28.659H40.4193C41.0499 28.659 41.5087 29.1703 41.5087 29.7386V33.1479C41.5087 33.7729 40.9928 34.2276 40.4193 34.2276H35.202C34.5713 34.2276 34.1126 33.7163 34.1126 33.1479V29.7386ZM34.1126 39.8523C34.1126 39.2273 34.6285 38.7726 35.202 38.7726H40.4193C41.0499 38.7726 41.5087 39.2839 41.5087 39.8523V43.2616C41.5087 43.8866 40.9928 44.3412 40.4193 44.3412H35.202C34.5713 44.3412 34.1126 43.8299 34.1126 43.2616V39.8523ZM22.245 29.7386C22.245 29.1136 22.7609 28.659 23.3344 28.659H28.5517C29.1823 28.659 29.6411 29.1703 29.6411 29.7386V33.1479C29.6411 33.7729 29.1252 34.2276 28.5517 34.2276H23.3344C22.7037 34.2276 22.245 33.7163 22.245 33.1479V29.7386ZM22.245 39.8523C22.245 39.2273 22.7609 38.7726 23.3344 38.7726H28.5517C29.1823 38.7726 29.6411 39.2839 29.6411 39.8523V43.2616C29.6411 43.8866 29.1252 44.3412 28.5517 44.3412H23.3344C22.7037 44.3412 22.245 43.8299 22.245 43.2616V39.8523ZM10.4347 29.7386C10.4347 29.1136 10.9506 28.659 11.5241 28.659H16.7414C17.372 28.659 17.8308 29.1703 17.8308 29.7386V33.1479C17.8308 33.7729 17.3149 34.2276 16.7414 34.2276H11.5241C10.8935 34.2276 10.4347 33.7163 10.4347 33.1479V29.7386ZM10.4347 39.8523C10.4347 39.2273 10.9506 38.7726 11.5241 38.7726H16.7414C17.372 38.7726 17.8308 39.2839 17.8308 39.8523V43.2616C17.8308 43.8866 17.3149 44.3412 16.7414 44.3412H11.5241C10.8935 44.3412 10.4347 43.8299 10.4347 43.2616V39.8523Z" fill="#009FE3"/>
</svg>
