<svg width="50" height="63" viewBox="0 0 50 63" fill="none" xmlns="http://www.w3.org/2000/svg">
<path fill-rule="evenodd" clip-rule="evenodd" d="M39 43.3398C39 54.202 30.2704 63 19.4971 63C8.73062 63 0 54.2016 0 43.3398C0 34.7639 16.4278 10.9641 19.4971 4C22.5718 10.9653 39 34.7651 39 43.3398ZM17.0601 31.0447H21.9333V37.1934H28.0306V42.1065H21.9333V48.254H17.0601V42.1065H10.968V37.1934H17.0601V31.0447Z" fill="white"/>
<path fill-rule="evenodd" clip-rule="evenodd" d="M49.9999 39.5044C49.9999 49.3263 42.691 57.4795 33.1193 59.001C37.5712 55.2139 40.4052 49.6228 40.4052 43.3358C40.4052 40.4652 38.7877 36.6417 37.596 34.0573C35.7573 30.069 33.5586 26.1704 31.3398 22.3786C29.1398 18.6191 26.8528 14.9136 24.5961 11.188C24.3974 10.8595 24.1981 10.5309 24 10.2018C26.6578 5.83688 28.9049 2.13717 29.8719 0.000976562C33.0406 6.99667 50 30.8957 50 39.5048L49.9999 39.5044Z" fill="#009FE3"/>
</svg>
