<svg width="53" height="53" viewBox="0 0 53 53" fill="none" xmlns="http://www.w3.org/2000/svg">
<path d="M16.3269 26.2196H22.5281C23.0722 26.2196 23.616 25.6755 23.616 25.1318V18.169C23.616 14.7965 26.3358 11.9678 29.5998 11.9678C30.1439 11.9678 30.6876 11.5326 30.6876 10.88V5.331C30.6876 4.67836 30.1435 4.24316 29.5998 4.24316H28.6208C21.3314 4.24316 15.2393 10.3359 15.2393 17.8423V25.1314C15.2393 25.6755 15.7834 26.2196 16.3271 26.2196H16.3269Z" fill="#009FE3"/>
<path d="M16.109 1.08784C16.109 0.543715 15.6738 0 15.0212 0H9.25485C8.92852 0 8.6022 0.1089 8.38479 0.326322C8.27589 0.544123 8.16699 0.761544 8.16699 1.08786V10.3352C6.64388 11.6408 5.77344 13.7077 5.77344 15.8838V16.1012C7.62283 15.1222 10.0164 14.3603 12.8451 13.8165C13.1714 13.8165 13.4978 13.7076 13.7155 13.7076C14.2597 11.7493 15.0212 10.0088 16.218 8.48534L16.2176 1.08778L16.109 1.08784Z" fill="#8D8D8E"/>
<path d="M8.71159 46.8899V43.517C8.71159 43.1906 8.82049 42.8643 9.14681 42.6465L11.4315 40.9056L10.1259 31.4405C10.017 30.7879 10.4522 30.2438 10.9963 30.2438C11.5404 30.1349 12.193 30.5701 12.193 31.2227L13.6072 41.2317C13.7161 41.667 13.4983 41.9933 13.172 42.2107L10.8873 44.0612V48.7393C13.6072 50.915 16.5444 52.2207 19.1557 52.2207C19.6999 52.2207 20.1347 52.2207 20.57 52.1118C21.8756 51.8944 22.9635 51.3503 24.1602 50.6976L22.0931 45.9106C21.9842 45.8017 21.9842 45.5843 21.9842 45.4754V40.6884L18.5032 34.9224C18.1768 34.3783 18.3943 33.7257 18.8295 33.3993C19.3736 33.073 20.0262 33.2904 20.3526 33.7256L23.9429 39.6005C24.0518 39.8179 24.1603 39.9268 24.1603 40.1446V45.0401L25.9012 49.1742C30.4704 44.9312 32.9729 36.8805 31.4498 29.1562C30.6882 24.9132 28.7299 21.4318 25.9012 19.1472V25.131C25.9012 26.8719 24.3781 28.395 22.6372 28.395L16.3271 28.3946C14.5862 28.3946 13.0631 26.8715 13.0631 25.1306V17.8416C13.0631 17.1889 13.0631 16.536 13.172 15.9922H13.0635C3.05447 17.9505 -1.29727 23.3901 0.33463 32.0936C1.31397 37.4244 4.68646 42.973 8.71192 46.8895L8.71159 46.8899Z" fill="#8D8D8E"/>
<path d="M51.1409 32.5294H48.9652L46.5717 23.2821C46.4628 22.7379 46.0276 22.4116 45.4838 22.4116C44.9397 22.4116 44.5049 22.8468 44.5049 23.2821L42.3292 35.5757L41.0236 31.0065C40.9147 30.5713 40.5884 30.2449 40.1532 30.2449C39.7179 30.136 39.2827 30.3538 39.0653 30.7891L36.7807 34.4879L34.7135 27.634C34.6046 27.1987 34.1694 26.8724 33.7346 26.8724C33.5171 26.8724 33.2993 26.8724 33.1904 26.9813C33.4079 27.634 33.5168 28.1781 33.6257 28.8307C33.8431 30.2449 34.0609 31.6594 34.0609 33.0737L35.4751 37.5344C35.584 37.9696 35.9103 38.2959 36.3455 38.2959C36.7807 38.4048 37.216 38.187 37.4334 37.7518L39.609 34.053L41.5673 40.7983C41.6762 41.2335 42.1114 41.5598 42.6552 41.5598H42.7641C43.3082 41.5598 43.743 41.1246 43.743 40.6894L45.8102 28.7221L47.2244 33.9444C47.3333 34.3796 47.7685 34.8148 48.3122 34.8148L51.141 34.8145C51.7936 34.8145 52.2288 34.3792 52.2288 33.7266C52.2288 32.9647 51.7936 32.5295 51.141 32.5295L51.1409 32.5294Z" fill="#009FE3"/>
</svg>
