<svg width="54" height="47" viewBox="0 0 54 47" fill="none" xmlns="http://www.w3.org/2000/svg">
<path d="M24.3433 17.6257C22.9076 12.4194 18.5148 8.4362 13.0557 7.5546C15.0065 4.99448 17.5789 3.03836 20.4801 1.84738C24.7182 0.107818 29.6261 -0.0295094 34.2001 1.84738C37.2526 3.10066 39.7561 5.10391 41.6139 7.5418C36.3113 8.40219 31.9949 12.2082 30.4416 17.2039H27.3369C26.3093 17.2035 25.3057 17.3509 24.3432 17.6257L24.3433 17.6257Z" fill="#009FE3"/>
<path d="M40.4714 34.959C47.8596 34.959 53.8527 29.0675 53.8534 21.7908C53.8534 16.337 49.3625 11.9154 43.8162 11.9141C38.2739 11.9141 33.7791 16.3341 33.7791 21.7895H27.0899C23.3953 21.7895 20.3983 24.738 20.3994 28.3743C20.3994 32.0094 23.3934 34.959 27.0899 34.959H33.78L40.471 47H43.817L40.4714 34.959Z" fill="#8D8D8E"/>
<path d="M16.4455 28.2315C16.4455 24.9079 17.9892 21.9458 20.3992 20.0023C19.5859 15.4085 15.555 11.9128 10.6881 11.9141C5.23758 11.9141 0.816406 16.2958 0.816406 21.7052C0.816406 25.3092 3.76199 28.2328 7.39776 28.2328H16.4462C16.4457 28.2333 16.4457 28.2333 16.4457 28.2319L16.4455 28.2315Z" fill="#8D8D8E"/>
</svg>
