<svg width="57" height="68" viewBox="0 0 57 68" fill="none" xmlns="http://www.w3.org/2000/svg">
<path d="M28.3822 54.7036C28.3739 55.8428 28.251 56.9781 28.0156 58.0914L38.0913 47.7336L28.3822 37.7643V54.7036Z" fill="#009FE3"/>
<path d="M34.851 13.2843L28.3822 19.9264V34.3279L39.7587 46.0214L53.2403 32.1786C55.6479 29.6997 57 26.3416 57 22.8407C57 19.3398 55.6479 15.9817 53.2403 13.5029L53.0392 13.2843C50.6251 10.8121 47.3547 9.4238 43.9451 9.4238C40.5356 9.4238 37.2651 10.8121 34.851 13.2843ZM38.6589 19.6836L33.5028 24.9779C33.2801 25.2049 32.9787 25.3318 32.6649 25.3307C32.3511 25.3295 32.0506 25.2004 31.8295 24.9718C31.6083 24.7431 31.4847 24.4337 31.4858 24.1114C31.487 23.7892 31.6127 23.4806 31.8354 23.2536L36.9796 17.9593C37.2023 17.7306 37.5044 17.6022 37.8193 17.6022C38.1342 17.6022 38.4362 17.7306 38.6589 17.9593C38.8816 18.1879 39.0067 18.4981 39.0067 18.8214C39.0067 19.1448 38.8816 19.4549 38.6589 19.6836Z" fill="#009FE3"/>
<path d="M0 35.2143V54.6429C0 58.1854 1.37054 61.5828 3.8101 64.0878C6.24967 66.5927 9.55844 68 13.0085 68H13.1268C14.8351 68 16.5266 67.6545 18.1049 66.9832C19.6832 66.312 21.1172 65.3281 22.3252 64.0878C23.5331 62.8475 24.4913 61.375 25.1451 59.7544C25.7988 58.1339 26.1353 56.3969 26.1353 54.6429V35.2143H0ZM6.71712 38.2986V46.7986C6.71712 47.1206 6.59253 47.4295 6.37075 47.6572C6.14897 47.8849 5.84817 48.0129 5.53453 48.0129C5.22089 48.0129 4.92009 47.8849 4.69831 47.6572C4.47653 47.4295 4.35194 47.1206 4.35194 46.7986V38.2986C4.35194 37.9765 4.47653 37.6677 4.69831 37.4399C4.92009 37.2122 5.22089 37.0843 5.53453 37.0843C5.84817 37.0843 6.14897 37.2122 6.37075 37.4399C6.59253 37.6677 6.71712 37.9765 6.71712 38.2986Z" fill="#009FE3"/>
<path d="M13.1268 5.58086e-06H12.8311C9.4258 0.0128475 6.16405 1.41004 3.75943 3.88593C1.35482 6.36181 0.00310407 9.71483 0 13.2114V32.7857H26.017V13.2114C26.0155 11.4749 25.6808 9.75566 25.0322 8.15192C24.3835 6.54817 23.4336 5.09131 22.2367 3.86451C21.0397 2.63772 19.6191 1.66501 18.056 1.00194C16.493 0.338868 14.818 -0.00158977 13.1268 5.58086e-06ZM6.56338 21.6507V24.9293C6.56338 25.2513 6.43879 25.5602 6.21701 25.7879C5.99523 26.0156 5.69443 26.1436 5.38079 26.1436C5.06715 26.1436 4.76635 26.0156 4.54457 25.7879C4.32279 25.5602 4.1982 25.2513 4.1982 24.9293V21.6507C4.1982 21.3287 4.32279 21.0198 4.54457 20.7921C4.76635 20.5644 5.06715 20.4364 5.38079 20.4364C5.69443 20.4364 5.99523 20.5644 6.21701 20.7921C6.43879 21.0198 6.56338 21.3287 6.56338 21.6507ZM10.5842 6.76358C10.6528 6.90704 10.6932 7.063 10.703 7.22251C10.7127 7.38203 10.6918 7.54196 10.6412 7.69313C10.5907 7.8443 10.5116 7.98374 10.4084 8.10345C10.3053 8.22315 10.1802 8.32078 10.0402 8.39072C8.99524 8.91803 8.1154 9.73589 7.50075 10.7513C6.8861 11.7666 6.56133 12.9388 6.56338 14.1343V16.915C6.56273 17.0757 6.53104 17.2346 6.47014 17.3826C6.40924 17.5306 6.32035 17.6647 6.20861 17.7771C6.04259 17.9442 5.83229 18.0574 5.604 18.1024C5.37571 18.1475 5.13954 18.1225 4.92503 18.0305C4.71051 17.9385 4.52716 17.7836 4.39789 17.5852C4.26862 17.3868 4.19916 17.1537 4.1982 16.915V14.1343C4.19052 12.4841 4.63717 10.8654 5.48667 9.4646C6.33617 8.06382 7.55392 6.93807 8.99952 6.21715C9.28026 6.07399 9.60486 6.05114 9.902 6.1536C10.1991 6.25606 10.4445 6.47545 10.5842 6.76358Z" fill="#009FE3"/>
</svg>
