<svg width="42" height="76" viewBox="0 0 42 76" fill="none" xmlns="http://www.w3.org/2000/svg">
<path d="M33.8593 16V11.7099H35.2346C37.3128 11.7099 39 10.0607 39 8.03067V3.67918C39 1.64853 37.3128 0 35.2346 0H6.78118C4.70292 0 3 1.64853 3 3.67918V8.03067C3 10.0613 4.70292 11.7099 6.78118 11.7099H8.15643V16H33.8593Z" fill="#009FE3"/>
<path d="M33.6484 19.0007H8.3375C3.73572 19.0007 0 22.8137 0 27.4927V69.6959C0.000625289 73.1592 2.77954 76 6.20134 76H35.7993C39.2211 76 42 73.1592 42 69.6952L41.9994 27.4921C41.9994 22.8131 38.2492 19 33.6475 19L33.6484 19.0007ZM27.9286 49.0204H22.4907V54.549C22.4907 55.3882 21.8222 56.0679 20.9968 56.0679C20.1707 56.0679 19.5029 55.3876 19.5029 54.549V49.0204H14.0663C13.2402 49.0204 12.5724 48.3401 12.5724 47.5015C12.5724 46.6622 13.2409 45.9825 14.0663 45.9825H19.5029V40.4533C19.5029 39.6141 20.1714 38.9344 20.9968 38.9344C21.8229 38.9344 22.4907 39.6147 22.4907 40.4533V45.9825H27.9286C28.7547 45.9825 29.4225 46.6628 29.4225 47.5015C29.4225 48.3407 28.7547 49.0204 27.9286 49.0204Z" fill="#009FE3"/>
</svg>
