<svg width="40" height="50" viewBox="0 0 40 50" fill="none" xmlns="http://www.w3.org/2000/svg">
<path fill-rule="evenodd" clip-rule="evenodd" d="M31 34.3385C31 42.9915 24.0611 50 15.4977 50C6.93972 50 0 42.9911 0 34.3385C0 27.5069 13.058 8.5477 15.4977 3C17.9417 8.54865 31 27.5078 31 34.3385ZM13.5606 24.5441H17.4341V29.4422H22.2808V33.3561H17.4341V38.2532H13.5606V33.3561H8.71818V29.4422H13.5606V24.5441Z" fill="#8D8D8E"/>
<path fill-rule="evenodd" clip-rule="evenodd" d="M39.9999 31.4688C39.9999 39.293 34.0966 45.788 26.3656 47C29.9614 43.9831 32.2504 39.5292 32.2504 34.521C32.2504 32.2342 30.9439 29.1884 29.9814 27.1296C28.4963 23.9525 26.7204 20.8468 24.9283 17.8263C23.1514 14.8314 21.3042 11.8795 19.4815 8.91172C19.321 8.64999 19.16 8.38827 19 8.12608C21.1467 4.64894 22.9617 1.70172 23.7427 0C26.302 5.57284 40 24.6111 40 31.4691L39.9999 31.4688Z" fill="#009FE3"/>
</svg>
