<svg width="65" height="64" viewBox="0 0 65 64" fill="none" xmlns="http://www.w3.org/2000/svg">
<path d="M20.0097 32.1338H27.6097C28.2766 32.1338 28.9429 31.4669 28.9429 30.8005V22.2672C28.9429 18.134 32.2763 14.6672 36.2765 14.6672C36.9434 14.6672 37.6097 14.1338 37.6097 13.334V6.53341C37.6097 5.73355 36.9429 5.2002 36.2765 5.2002H35.0768C26.1431 5.2002 18.6768 12.6672 18.6768 21.8669V30.8001C18.6768 31.4669 19.3436 32.1338 20.01 32.1338H20.0097Z" fill="#009FE3"/>
<path d="M19.7431 1.33321C19.7431 0.666357 19.2097 0 18.4099 0H11.3429C10.9429 0 10.543 0.133464 10.2766 0.399928C10.1431 0.666857 10.0096 0.933321 10.0096 1.33324V12.6664C8.14296 14.2666 7.07617 16.7997 7.07617 19.4666V19.733C9.34272 18.5333 12.2762 17.5995 15.743 16.933C16.1429 16.933 16.5428 16.7996 16.8097 16.7996C17.4766 14.3996 18.4098 12.2665 19.8766 10.3993L19.8762 1.33314L19.7431 1.33321Z" fill="white"/>
<path d="M10.6766 57.4667V53.333C10.6766 52.9331 10.8101 52.5331 11.21 52.2662L14.01 50.1326L12.4099 38.5325C12.2764 37.7327 12.8098 37.0659 13.4767 37.0659C14.1435 36.9324 14.9433 37.4658 14.9433 38.2656L16.6765 50.5323C16.81 51.0657 16.5431 51.4656 16.1431 51.732L13.3431 54V59.7333C16.6765 62.3998 20.2762 64 23.4766 64C24.1434 64 24.6764 64 25.2098 63.8666C26.8099 63.6001 28.1433 62.9332 29.6099 62.1333L27.0765 56.2665C26.943 56.1331 26.943 55.8666 26.943 55.7332V49.8664L22.6768 42.7998C22.2769 42.133 22.5434 41.3332 23.0767 40.9332C23.7436 40.5332 24.5434 40.7997 24.9434 41.3331L29.3435 48.5331C29.477 48.7996 29.61 48.933 29.61 49.1999V55.1997L31.7436 60.2663C37.3434 55.0663 40.4104 45.1996 38.5437 35.7329C37.6104 30.5329 35.2104 26.2663 31.7436 23.4663V30.7998C31.7436 32.9334 29.8769 34.8001 27.7433 34.8001L20.0099 34.7996C17.8763 34.7996 16.0096 32.9329 16.0096 30.7994V21.8662C16.0096 21.0663 16.0096 20.266 16.1431 19.5996H16.0101C3.74344 21.9996 -1.58989 28.6663 0.410111 39.3329C1.61035 45.8661 5.74356 52.6663 10.677 57.4663L10.6766 57.4667Z" fill="white"/>
<path d="M62.6762 39.8668H60.0098L57.0763 28.5336C56.9429 27.8667 56.4095 27.4668 55.7431 27.4668C55.0763 27.4668 54.5434 28.0002 54.5434 28.5336L51.8769 43.6002L50.2768 38.0004C50.1433 37.467 49.7434 37.067 49.21 37.067C48.6766 36.9336 48.1433 37.2005 47.8768 37.7339L45.0768 42.267L42.5434 33.8671C42.4099 33.3337 41.8765 32.9338 41.3436 32.9338C41.0771 32.9338 40.8102 32.9338 40.6768 33.0673C40.9432 33.8671 41.0767 34.5339 41.2102 35.3338C41.4766 37.067 41.7435 38.8006 41.7435 40.5338L43.4768 46.0007C43.6102 46.5341 44.0101 46.934 44.5435 46.934C45.0769 47.0675 45.6103 46.8006 45.8767 46.2672L48.5432 41.7341L50.9432 50.0009C51.0766 50.5343 51.61 50.9342 52.2764 50.9342H52.4098C53.0767 50.9342 53.6096 50.4008 53.6096 49.8674L56.1431 35.2007L57.8763 41.601C58.0097 42.1344 58.5431 42.6677 59.2095 42.6677L62.6763 42.6673C63.4761 42.6673 64.0095 42.1339 64.0095 41.3341C64.0095 40.4003 63.4761 39.8669 62.6763 39.8669L62.6762 39.8668Z" fill="#009FE3"/>
</svg>
